<?xml version="1.0" encoding="UTF-8"?>
<svg id="_图层_1" xmlns="http://www.w3.org/2000/svg" version="1.1" viewBox="0 0 566.9 566.9">
  <!-- Generator: Adobe Illustrator 29.3.0, SVG Export Plug-In . SVG Version: 2.1.0 Build 146)  -->
  <defs>
    <style>
      .st0 {
        fill: #f0e6d6;
      }

      .st1 {
        fill: #fffefd;
      }

      .st2 {
        fill: #f7f3eb;
      }

      .st3 {
        fill: #040000;
      }
    </style>
  </defs>
  <path class="st1" d="M337.2,420.7c-.3.2-3.2,4.9-4.2,5.9-28.7,30.4-92.2,34.4-125.6,10.1s-8.5-9.2-14.7-9.3c-4.7,0-14.2,8.1-19.4,10.6-21.9,10.7-50.5,12-73.8,5.3-73.2-20.9-64.5-111.7-43.5-168.4,1.5-4,5.7-11.3,6.4-14.6s-.2-10.2.2-14.8c3.8-46.2,27-88.1,70.7-107,52.6-22.7,114.8-6,146.4,42.1,18.9-29.9,52-48.4,87-51.7,62-5.8,116.7,34.1,130.5,94.5,1.5,6.5,2.5,21.8,4.5,26.2s8.7,7.7,10.5,9.8c18.7,22,16.2,56.9,3,81-1.3,2.3-7.5,10.5-7.7,11.7s4.3,13.3,4.8,16.6c13.2,80.7-120.4,103-165.1,61.6-2.3-2.2-6.5-8.5-7.8-9.4s-1.5-.6-2.2-.3h0Z"/>
  <path class="st3" d="M488,257c35.9,18.6,27.9,68.8,3.1,93.5,17,27.8,8.7,57.4-19.7,72.8-28.5,15.4-86.2,20.9-112.5-.8-8.5-7-9.9-18.2-23.6-16.9s-6.7,5-10.2,9.4c-20.9,25.9-73.2,30.5-101.5,16-13.3-6.8-18.8-21.3-36.6-16.2s-13,7.9-20.2,11.3c-29.6,14-76.9,9.9-97.3-18s-14.5-92.8-.7-129.4c1.7-4.4,6.4-12.4,7.1-16.1s-.2-12.5,0-17.9c3-51.8,39.4-96,92-102.2,49.3-5.9,94,21.3,111.6,67.4,13.2-34.6,42.1-60.2,79-66.5,72.4-12.4,128.9,42.6,129.3,113.7h.1Z"/>
  <path class="st0" d="M197.6,275.1c-.4.3-6.2-6-7.1-6.7-14.1-11.2-36.6-12.7-53.6-9.4-5.7,1.1-15.4,2.5-14.1,10.3s14.7,3,20.5,2.1c31-4.3,54.3,11,50.5,44.5-2,16.9-18,23.7-33.3,23.8s-23.7-4.3-25.1,4.9,10.4,7.3,16.8,7.8c21.5,1.8,31.1,9.7,28.8,32.5-3.7,36.4-53,41.1-80.1,30.1-46-18.7-34-92.7-20.1-129.5,2-5.3,7.8-15.2,8.6-19.8,1.3-7.2,0-17.8.9-26.1,8.5-71.4,86.6-110.3,145.7-66.3,29.9,22.3,33.1,48.4,36.5,82.7.4,4.2,2.7,11,2.8,14.4s-2.7,5.3-3.9,7c-17.7-23-58.4-32.9-73.9-2.2h.1Z"/>
  <path class="st0" d="M404.4,358.2c.8-.9,1.7-4,1.6-5.2-.6-6.7-10.9-6.6-15.9-8.1-24-7.3-44.6-31.3-36.6-57.5s48.8-19.7,56.7,4.5c1.9,5.9.5,14.5,9.2,14.2s6.4-10.2,8.4-16.4c12.1-36.9,67.7-32.6,70.7,6.2s-5.6,32.4-16.5,44.2c-2.7,2.9-6.5,3.6-7.2,8.6s6.4,11.8,8.3,16.5c22,54.8-78.3,69.1-110.5,49.8-23.6-14.2-13.8-52.9,14.5-55.1,4.9-.4,14.1,2.2,17.4-1.7h0Z"/>
  <path class="st0" d="M473.6,251.1c-5-.9-22.8-3.2-39.2,7.7-7,4.6-11.5,10.2-14.2,14.3-2.6,4.5-2.7,3.3-3.2,2.7-2.1-2.5-4.6-5.7-7.6-8.2-18.6-15.5-47-16.8-63.1,2.9-1.3.2-5.1-5.3-6.7-6.7-10.3-8.9-26.3-11.6-39.4-8.7-4.7,1.1-8.8,3.9-13.5,4.9-2.2-34.9,10.8-69.9,40.3-89.8,27.4-18.6,66.4-19.6,95.5-4.3,31.9,16.8,49,49.7,51,85.1h.1Z"/>
  <path class="st0" d="M308.5,267.8c38.9-2.9,35.1,42.6,11.8,62-5.2,4.3-19.1,9-12.3,17.5,1.3,1.6,3.2,1.9,4.8,3.4,9.6,9.5,11.1,33.6,6.7,45.8-10.9,30.3-66,35.7-90.4,21.4-21.9-12.8-16.9-57.1,7.8-64.9s16.6-.2,15.4-9.3-6.2-5-9.9-6.6c-15.6-6.7-33.6-21.9-35.1-39.9-3.3-39.7,42.6-32,58.2-4.2,2.2,4,2.2,9.9,8.9,9.5s6.1-8,7.6-13.2c3.4-12.1,13.9-20.6,26.4-21.5h0Z"/>
  <path class="st3" d="M231.2,208.6c25.4-5.2,24.6,41.3.7,36.4-16-3.3-14.8-33.5-.7-36.4Z"/>
  <path class="st2" d="M168.1,172.7c3.1,3.1,1.7,7.2-1.6,9.5s-10.2,2.7-14.3,4.5c-13.9,5.8-17.9,12.9-26.3,24s-14.5,3-12.7-3.7,4.7-8.5,6.1-10.4c7.8-10.7,23.7-21,36.5-24.3s9.2-2.6,12.3.5h0Z"/>
  <path class="st3" d="M315.6,211.6c.9-.9,4.3-2.8,5.5-3.1,24.6-5.1,24.7,40.3,1.4,36.5s-16-24.9-6.9-33.4Z"/>
</svg>